<svg width="100" height="100" viewBox="0 0 100 100" xmlns="http://www.w3.org/2000/svg">
  <!-- Face circle -->
  <circle cx="50" cy="42" r="28" fill="#bb9167"/>
  
  <!-- Hair -->
  <path d="M22 35C22 35 28 15 50 15C72 15 78 35 78 35C78 35 75 25 70 30C70 30 72 18 50 18C28 18 30 30 30 30C30 30 25 25 22 35Z" fill="#000"/>
  
  <!-- Headband -->
  <path d="M26 35C26 35 30 28 50 28C70 28 74 35 74 35" stroke="#F26E46" stroke-width="4" fill="none"/>
  
  <!-- Eyes -->
  <circle cx="40" cy="38" r="3" fill="#333"/>
  <circle cx="60" cy="38" r="3" fill="#333"/>
  
  <!-- Mouth -->
  <path d="M40 50C40 50 50 53 60 50" stroke="#333" stroke-width="2" fill="none"/>
  
  <!-- Basketball jersey -->
  <path d="M25 70V100H75V70C75 70 70 80 50 80C30 80 25 70 25 70Z" fill="#F26E46"/>
  <path d="M35 75L35 95" stroke="#fff" stroke-width="2"/>
  <path d="M65 75L65 95" stroke="#fff" stroke-width="2"/>
  <path d="M40 85H60" stroke="#fff" stroke-width="2"/>
  
  <!-- Number -->
  <text x="50" y="90" font-family="Arial" font-size="20" fill="white" text-anchor="middle">15</text>
</svg>