<svg width="100" height="100" viewBox="0 0 100 100" xmlns="http://www.w3.org/2000/svg">
  <!-- Face circle -->
  <circle cx="50" cy="42" r="28" fill="#d4a373"/>
  
  <!-- Hair -->
  <path d="M30 25C30 25 35 18 50 18C65 18 70 25 70 25C70 25 75 35 75 45C75 45 73 35 70 33C70 33 73 40 71 45C71 45 65 35 63 38C63 38 60 25 50 25C40 25 37 38 37 38C37 38 35 35 29 45C29 45 27 40 30 33C30 33 27 35 25 45C25 45 25 35 30 25Z" fill="#603813"/>
  
  <!-- Eyes -->
  <circle cx="40" cy="38" r="3" fill="#333"/>
  <circle cx="60" cy="38" r="3" fill="#333"/>
  
  <!-- Mouth -->
  <path d="M42 52C42 52 50 58 58 52" stroke="#333" stroke-width="2" fill="none"/>
  
  <!-- Basketball jersey -->
  <path d="M25 70V100H75V70C75 70 70 80 50 80C30 80 25 70 25 70Z" fill="#F26E46"/>
  <path d="M35 75L35 95" stroke="#fff" stroke-width="2"/>
  <path d="M65 75L65 95" stroke="#fff" stroke-width="2"/>
  <path d="M40 85H60" stroke="#fff" stroke-width="2"/>
  
  <!-- Number -->
  <text x="50" y="90" font-family="Arial" font-size="20" fill="white" text-anchor="middle">7</text>
</svg>